{
  "accessors": [
    {
      "bufferView": 2,
      "componentType": 5126,
      "count": 9663,
      "max": [
        1.3203372955322266,
        3.112107276916504,
        3.0
      ],
      "min": [
        -1.3203372955322266,
        -2.9802322387695313e-08,
        -3.0
      ],
      "type": "VEC3"
    },
    {
      "bufferView": 2,
      "byteOffset": 115956,
      "componentType": 5126,
      "count": 9663,
      "max": [
        1.0,
        1.0,
        1.0
      ],
      "min": [
        -1.0,
        -1.0,
        -1.0
      ],
      "type": "VEC3"
    },
    {
      "bufferView": 1,
      "componentType": 5126,
      "count": 9663,
      "max": [
        0.8301371932029724,
        0.8112645745277405
      ],
      "min": [
        0.0,
        0.0
      ],
      "type": "VEC2"
    },
    {
      "bufferView": 0,
      "componentType": 5125,
      "count": 34512,
      "type": "SCALAR"
    },
    {
      "bufferView": 2,
      "byteOffset": 231912,
      "componentType": 5126,
      "count": 24,
      "max": [
        0.4637351334095001,
        0.17371034622192383,
        0.2680370509624481
      ],
      "min": [
        -0.4637351334095001,
        -0.17371034622192383,
        -0.2680370509624481
      ],
      "type": "VEC3"
    },
    {
      "bufferView": 2,
      "byteOffset": 232200,
      "componentType": 5126,
      "count": 24,
      "max": [
        1.0,
        1.0,
        1.0
      ],
      "min": [
        -1.0,
        -1.0,
        -1.0
      ],
      "type": "VEC3"
    },
    {
      "bufferView": 0,
      "byteOffset": 138048,
      "componentType": 5125,
      "count": 36,
      "type": "SCALAR"
    },
    {
      "bufferView": 2,
      "byteOffset": 232488,
      "componentType": 5126,
      "count": 48,
      "max": [
        1.9134002923965454,
        0.19028234481811523,
        0.13099981844425201
      ],
      "min": [
        -0.43428727984428406,
        -0.19028234481811523,
        -0.13099981844425201
      ],
      "type": "VEC3"
    },
    {
      "bufferView": 2,
      "byteOffset": 233064,
      "componentType": 5126,
      "count": 48,
      "max": [
        1.0,
        1.0,
        1.0
      ],
      "min": [
        -1.0,
        -1.0,
        -1.0
      ],
      "type": "VEC3"
    },
    {
      "bufferView": 1,
      "byteOffset": 77304,
      "componentType": 5126,
      "count": 48,
      "max": [
        0.3240326941013336,
        0.8379190564155579
      ],
      "min": [
        0.2822420597076416,
        0.7821982502937317
      ],
      "type": "VEC2"
    },
    {
      "bufferView": 0,
      "byteOffset": 138192,
      "componentType": 5125,
      "count": 72,
      "type": "SCALAR"
    },
    {
      "bufferView": 2,
      "byteOffset": 233640,
      "componentType": 5126,
      "count": 24,
      "max": [
        0.43428727984428406,
        0.19028234481811523,
        0.13099981844425201
      ],
      "min": [
        -0.43428727984428406,
        -0.19028234481811523,
        -0.13099981844425201
      ],
      "type": "VEC3"
    },
    {
      "bufferView": 2,
      "byteOffset": 233928,
      "componentType": 5126,
      "count": 24,
      "max": [
        1.0,
        1.0,
        1.0
      ],
      "min": [
        -1.0,
        -1.0,
        -1.0
      ],
      "type": "VEC3"
    },
    {
      "bufferView": 1,
      "byteOffset": 77688,
      "componentType": 5126,
      "count": 24,
      "max": [
        0.4615331292152405,
        0.594717264175415
      ],
      "min": [
        0.4301924407482147,
        0.5529297590255737
      ],
      "type": "VEC2"
    },
    {
      "bufferView": 0,
      "byteOffset": 138480,
      "componentType": 5125,
      "count": 36,
      "type": "SCALAR"
    },
    {
      "bufferView": 2,
      "byteOffset": 234216,
      "componentType": 5126,
      "count": 160,
      "max": [
        3.689972400665283,
        2.306018829345703,
        10.013908386230469
      ],
      "min": [
        -3.8688573837280273,
        0.9486068487167358,
        -0.3026326298713684
      ],
      "type": "VEC3"
    },
    {
      "bufferView": 2,
      "byteOffset": 236136,
      "componentType": 5126,
      "count": 160,
      "max": [
        0.9954421520233154,
        1.0,
        1.0
      ],
      "min": [
        -1.0,
        -1.0,
        -1.0
      ],
      "type": "VEC3"
    },
    {
      "bufferView": 1,
      "byteOffset": 77880,
      "componentType": 5126,
      "count": 160,
      "max": [
        0.9853264689445496,
        0.9850807785987854
      ],
      "min": [
        0.8909578919410706,
        0.8956338763237
      ],
      "type": "VEC2"
    },
    {
      "bufferView": 0,
      "byteOffset": 138624,
      "componentType": 5125,
      "count": 240,
      "type": "SCALAR"
    }
  ],
  "asset": {
    "extras": {
      "author": "Computer Geek (https://sketchfab.com/hqassests)",
      "license": "CC-BY-4.0 (http://creativecommons.org/licenses/by/4.0/)",
      "source": "https://sketchfab.com/3d-models/low-poly-car-d867720a70694667b6d6a750fa69027d",
      "title": "Low Poly Car"
    },
    "generator": "Sketchfab-12.78.0",
    "version": "2.0"
  },
  "bufferViews": [
    {
      "buffer": 0,
      "byteLength": 139584,
      "name": "floatBufferViews",
      "target": 34963
    },
    {
      "buffer": 0,
      "byteLength": 79160,
      "byteOffset": 139584,
      "byteStride": 8,
      "name": "floatBufferViews",
      "target": 34962
    },
    {
      "buffer": 0,
      "byteLength": 238056,
      "byteOffset": 218744,
      "byteStride": 12,
      "name": "floatBufferViews",
      "target": 34962
    }
  ],
  "buffers": [
    {
      "byteLength": 456800,
      "uri": "scene.bin"
    }
  ],
  "images": [
    {
      "uri": "textures/Car_Mat_baseColor.png"
    }
  ],
  "materials": [
    {
      "alphaMode": "BLEND",
      "doubleSided": true,
      "name": "material_0",
      "pbrMetallicRoughness": {
        "baseColorFactor": [
          1.0,
          1.0,
          1.0,
          0.0
        ],
        "metallicFactor": 0.0,
        "roughnessFactor": 0.6
      }
    },
    {
      "doubleSided": true,
      "name": "Car_Mat",
      "pbrMetallicRoughness": {
        "baseColorTexture": {
          "index": 0
        },
        "metallicFactor": 0.0,
        "roughnessFactor": 0.5
      }
    },
    {
      "doubleSided": true,
      "name": "HeadLight",
      "pbrMetallicRoughness": {
        "baseColorFactor": [
          0.0026094786934397905,
          0.25730578540798066,
          0.0,
          1.0
        ],
        "metallicFactor": 0.0,
        "roughnessFactor": 0.5
      }
    },
    {
      "doubleSided": true,
      "name": "BackLights",
      "pbrMetallicRoughness": {
        "baseColorFactor": [
          0.7999999999999999,
          0.0,
          0.08963650000000019,
          1.0
        ],
        "metallicFactor": 0.0,
        "roughnessFactor": 0.5
      }
    },
    {
      "doubleSided": true,
      "name": "wheel",
      "pbrMetallicRoughness": {
        "baseColorTexture": {
          "index": 0
        },
        "metallicFactor": 0.0,
        "roughnessFactor": 0.5
      }
    }
  ],
  "meshes": [
    {
      "name": "Object_0",
      "primitives": [
        {
          "attributes": {
            "NORMAL": 1,
            "POSITION": 0,
            "TEXCOORD_0": 2
          },
          "indices": 3,
          "material": 1,
          "mode": 4
        }
      ]
    },
    {
      "name": "Object_1",
      "primitives": [
        {
          "attributes": {
            "NORMAL": 5,
            "POSITION": 4
          },
          "indices": 6,
          "material": 0,
          "mode": 4
        }
      ]
    },
    {
      "name": "Object_2",
      "primitives": [
        {
          "attributes": {
            "NORMAL": 8,
            "POSITION": 7,
            "TEXCOORD_0": 9
          },
          "indices": 10,
          "material": 2,
          "mode": 4
        }
      ]
    },
    {
      "name": "Object_3",
      "primitives": [
        {
          "attributes": {
            "NORMAL": 12,
            "POSITION": 11,
            "TEXCOORD_0": 13
          },
          "indices": 14,
          "material": 3,
          "mode": 4
        }
      ]
    },
    {
      "name": "Object_4",
      "primitives": [
        {
          "attributes": {
            "NORMAL": 16,
            "POSITION": 15,
            "TEXCOORD_0": 17
          },
          "indices": 18,
          "material": 4,
          "mode": 4
        }
      ]
    }
  ],
  "nodes": [
    {
      "children": [
        1
      ],
      "matrix": [
        1.0,
        0.0,
        0.0,
        0.0,
        0.0,
        2.220446049250313e-16,
        -1.0,
        0.0,
        0.0,
        1.0,
        2.220446049250313e-16,
        0.0,
        0.0,
        0.0,
        0.0,
        1.0
      ],
      "name": "Sketchfab_model"
    },
    {
      "children": [
        2
      ],
      "name": "root"
    },
    {
      "children": [
        3,
        7,
        9,
        11
      ],
      "matrix": [
        1.0,
        0.0,
        0.0,
        0.0,
        0.0,
        2.220446049250313e-16,
        1.0,
        0.0,
        0.0,
        -1.0,
        2.220446049250313e-16,
        0.0,
        0.0,
        0.0,
        0.0,
        1.0
      ],
      "name": "GLTF_SceneRootNode"
    },
    {
      "children": [
        4,
        5
      ],
      "matrix": [
        1.0,
        0.0,
        0.0,
        0.0,
        0.0,
        1.0,
        0.0,
        0.0,
        0.0,
        0.0,
        1.0,
        0.0,
        0.0,
        0.552840530872345,
        0.0,
        1.0
      ],
      "name": "Cube_3"
    },
    {
      "mesh": 0,
      "name": "Object_4"
    },
    {
      "children": [
        6
      ],
      "matrix": [
        -5.96046483281043e-08,
        -1.1920928777442441e-07,
        -0.9999999999999911,
        0.0,
        0.9999999999999964,
        -5.96046483281043e-08,
        -5.9604641222676946e-08,
        0.0,
        -5.9604641222676946e-08,
        -0.9999999999999911,
        1.192092913271381e-07,
        0.0,
        1.0806868076324463,
        0.12563246488571167,
        -2.1827688217163086,
        1.0
      ],
      "name": "Cutter.001_2"
    },
    {
      "mesh": 1,
      "name": "Object_6"
    },
    {
      "children": [
        8
      ],
      "matrix": [
        1.0,
        0.0,
        0.0,
        0.0,
        0.0,
        1.0,
        0.0,
        0.0,
        0.0,
        0.0,
        1.0,
        0.0,
        -0.7222607135772705,
        1.0109047889709473,
        2.962413787841797,
        1.0
      ],
      "name": "Cube.002_4"
    },
    {
      "mesh": 2,
      "name": "Object_8"
    },
    {
      "children": [
        10
      ],
      "matrix": [
        2.713703155517578,
        0.0,
        0.0,
        0.0,
        0.0,
        1.0,
        0.0,
        0.0,
        0.0,
        0.0,
        1.0,
        0.0,
        0.06228288263082504,
        1.345940113067627,
        -3.0547544956207275,
        1.0
      ],
      "name": "Cube.003_5"
    },
    {
      "mesh": 3,
      "name": "Object_10"
    },
    {
      "children": [
        12
      ],
      "matrix": [
        0.3664747178554535,
        0.0,
        0.0,
        0.0,
        0.0,
        0.3664747178554535,
        0.0,
        0.0,
        0.0,
        0.0,
        0.4397214353084564,
        0.0,
        0.0,
        0.08631806820631027,
        -2.38030743598938,
        1.0
      ],
      "name": "Plane.001_6"
    },
    {
      "mesh": 4,
      "name": "Object_12"
    }
  ],
  "samplers": [
    {
      "magFilter": 9729,
      "minFilter": 9987,
      "wrapS": 10497,
      "wrapT": 10497
    }
  ],
  "scene": 0,
  "scenes": [
    {
      "name": "Sketchfab_Scene",
      "nodes": [
        0
      ]
    }
  ],
  "textures": [
    {
      "sampler": 0,
      "source": 0
    }
  ]
}
