{
  "asset": {
    "generator": "Khronos glTF Blender I/O v1.5.17",
    "version": "2.0"
  },
  "scene": 0,
  "scenes": [
    {
      "name": "Scene",
      "nodes": [0]
    }
  ],
  "nodes": [
    {
      "mesh": 0,
      "name": "node-0",
      "rotation": [0, -0.7067825794219971, 0, 0.7074308395385742],
      "scale": [
        0.021993855014443398,
        0.028092309832572937,
        0.028092309832572937
      ],
      "translation": [
        -0.49849623441696167,
        -0.37942004203796387,
        -1.229768991470337
      ]
    }
  ],
  "materials": [
    {
      "doubleSided": true,
      "name": "Mat",
      "pbrMetallicRoughness": {
        "baseColorFactor": [
          0.7760934829711914,
          0.8786484003067017,
          0.8786484003067017,
          1
        ],
        "metallicFactor": 0,
        "roughnessFactor": 0.8582186102867126
      }
    },
    {
      "doubleSided": true,
      "name": "Mat.1",
      "pbrMetallicRoughness": {
        "baseColorFactor": [
          0.800000011920929,
          0.800000011920929,
          0.800000011920929,
          1
        ],
        "metallicFactor": 0,
        "roughnessFactor": 0.8582186102867126
      }
    }
  ],
  "meshes": [
    {
      "name": "buffer-0-mesh-0",
      "primitives": [
        {
          "attributes": {
            "POSITION": 0,
            "NORMAL": 1
          },
          "indices": 2,
          "material": 0
        },
        {
          "attributes": {
            "POSITION": 3,
            "NORMAL": 4
          },
          "indices": 5,
          "material": 1
        }
      ]
    }
  ],
  "accessors": [
    {
      "bufferView": 0,
      "componentType": 5126,
      "count": 339,
      "max": [336.2418518066406, 158.47500610351562, 252.9663543701172],
      "min": [-226.10092163085938, 13.592646598815918, -284.0523376464844],
      "type": "VEC3"
    },
    {
      "bufferView": 1,
      "componentType": 5126,
      "count": 339,
      "type": "VEC3"
    },
    {
      "bufferView": 2,
      "componentType": 5123,
      "count": 2022,
      "type": "SCALAR"
    },
    {
      "bufferView": 3,
      "componentType": 5126,
      "count": 222,
      "max": [167.1827850341797, 42.63920593261719, 94.56902313232422],
      "min": [-57.276954650878906, 3.4722740650177, -19.277421951293945],
      "type": "VEC3"
    },
    {
      "bufferView": 4,
      "componentType": 5126,
      "count": 222,
      "type": "VEC3"
    },
    {
      "bufferView": 5,
      "componentType": 5123,
      "count": 1278,
      "type": "SCALAR"
    }
  ],
  "bufferViews": [
    {
      "buffer": 0,
      "byteLength": 4068,
      "byteOffset": 0
    },
    {
      "buffer": 0,
      "byteLength": 4068,
      "byteOffset": 4068
    },
    {
      "buffer": 0,
      "byteLength": 4044,
      "byteOffset": 8136
    },
    {
      "buffer": 0,
      "byteLength": 2664,
      "byteOffset": 12180
    },
    {
      "buffer": 0,
      "byteLength": 2664,
      "byteOffset": 14844
    },
    {
      "buffer": 0,
      "byteLength": 2556,
      "byteOffset": 17508
    }
  ],
  "buffers": [
    {
      "byteLength": 20064,
      "uri": "data:application/octet-stream;base64,"
    }
  ]
}
